PathFileType	4	(X/Y/Z)	/Users/mathieubourgeois/Desktop/Analyse/Traitement/Sujet_04/Transformed_Static_Sujet_04_Tpose.trc
DataRate	CameraRate	NumFrames	NumMarkers	Units	OrigDataRate	OrigDataStartFrame	OrigNumFrames
120.000000	120.000000	4	36	mm	120.000000	185	296
Frame#	Time	RFHD			RANE			STRN			LANI			LKNE			T10			RHUM			RWRB			C7			LFWT			LTOE			RTOE			LWRA			LBWT			RBWT			RFWT			LKNI			RKNI			RKNE			LANE			RANI			LHEE			RHEE			LHUM			LRAD			RRAD			RWRA			LWRB			LFHD			LBHD			RBHD			RSHO			LSHO			CLAV			LCAR			RCAR			
		X1	Y1	Z1	X2	Y2	Z2	X3	Y3	Z3	X4	Y4	Z4	X5	Y5	Z5	X6	Y6	Z6	X7	Y7	Z7	X8	Y8	Z8	X9	Y9	Z9	X10	Y10	Z10	X11	Y11	Z11	X12	Y12	Z12	X13	Y13	Z13	X14	Y14	Z14	X15	Y15	Z15	X16	Y16	Z16	X17	Y17	Z17	X18	Y18	Z18	X19	Y19	Z19	X20	Y20	Z20	X21	Y21	Z21	X22	Y22	Z22	X23	Y23	Z23	X24	Y24	Z24	X25	Y25	Z25	X26	Y26	Z26	X27	Y27	Z27	X28	Y28	Z28	X29	Y29	Z29	X30	Y30	Z30	X31	Y31	Z31	X32	Y32	Z32	X33	Y33	Z33	X34	Y34	Z34	X35	Y35	Z35	X36	Y36	Z36	

186	1.541666666666667	-655.806884765625	1781.051025390625	442.4996337890623	-778.77294921875	91.36035919189455	190.2858276367187	-588.597900390625	1328.910522460938	444.1546936035155	-553.74560546875	99.9242630004883	240.3334197998046	-433.8455200195313	542.462890625	262.891632080078	-587.4893188476562	1316.163696289062	207.3444671630858	-1050.724609375	1426.161865234375	307.1126708984373	-1325.177124023438	1512.411010742188	284.8773803710935	-596.530517578125	1592.0947265625	267.2179565429686	-465.2095031738282	1063.527221679688	396.8468322753905	-484.3186340332032	35.56609344482425	420.7861633300781	-763.4589233398438	36.77772521972659	426.5570678710936	120.6493072509765	1579.821899414062	276.8304138183593	-532.7854614257812	1111.030639648438	201.4584808349608	-661.584228515625	1110.35400390625	191.7117614746092	-759.859619140625	1075.889282226562	372.5093688964842	-553.1154174804688	500.6526489257812	262.9108581542968	-666.3529663085938	503.7292175292969	285.6069946289061	-779.4637451171875	547.1456909179688	278.2824401855467	-466.1912536621094	85.85234832763673	190.8673248291015	-690.207275390625	97.48047637939455	229.0016937255859	-525.983642578125	63.19408798217774	152.6553802490234	-732.1057739257812	72.04871368408205	150.334014892578	-132.5573883056641	1441.302001953125	296.457794189453	-132.1519165039063	1487.623779296875	239.7729187011718	-1058.309692382812	1476.781372070312	258.0969543457029	-1308.111938476562	1557.837646484375	334.2855834960935	141.5572204589843	1502.995849609375	260.3056640624999	-523.19140625	1775.38818359375	430.0144653320311	-552.063232421875	1733.438720703125	273.462432861328	-688.1643676757812	1735.707885742188	295.4317932128905	-740.753662109375	1576.036987304688	290.501037597656	-442.5611877441407	1589.442260742188	304.5170593261717	-586.3060302734375	1497.341430664062	399.8278198242186	233.5321197509765	1577.580688476562	243.3120727539062	-1418.089599609375	1565.322143554688	303.0814819335935	
187	1.55	-655.8494873046875	1781.046997070312	442.484161376953	-778.7649536132812	91.34975433349611	190.2934417724609	-588.59619140625	1328.913452148438	444.148468017578	-553.75732421875	99.91304779052736	240.3219451904296	-433.8438415527344	542.4666137695312	262.8825073242186	-587.4879760742188	1316.166259765625	207.3469390869139	-1050.709838867188	1426.095336914062	307.086242675781	-1325.156494140625	1512.299438476562	284.8597106933591	-596.5293579101562	1592.092163085938	267.1858520507811	-465.2124328613282	1063.52587890625	396.8496093749999	-484.3145751953126	35.56109237670901	420.7826232910156	-763.4541015625	36.77811813354495	426.5615844726561	120.6557388305664	1579.761474609375	276.8157958984374	-531.1448364257812	1111.16357421875	200.9809417724608	-661.5704345703125	1110.352294921875	191.7023315429686	-759.8495483398438	1075.879760742188	372.4991149902342	-553.11767578125	500.6456298828125	262.9109497070311	-666.3527221679688	503.7200622558594	285.6113891601561	-779.4544677734375	547.1468505859375	278.2782897949217	-466.1907348632812	85.85476684570314	190.8634948730468	-690.2020874023438	97.47108459472658	228.9994812011718	-525.9861450195312	63.19635391235352	152.6636352539062	-732.112548828125	72.03867340087892	150.3308105468749	-132.5616149902344	1441.265625	296.4709472656249	-132.1477508544922	1487.579467773438	239.7899780273436	-1058.293823242188	1476.699829101562	258.0828552246091	-1308.11669921875	1557.72509765625	334.276428222656	141.5470581054687	1502.926025390625	260.2987976074218	-523.2245483398438	1775.407592773438	429.9505920410155	-552.13916015625	1733.462524414062	273.3988647460936	-688.235107421875	1735.682983398438	295.4089965820311	-740.7584228515625	1576.021850585938	290.4481506347654	-442.5624694824219	1589.4326171875	304.4802856445311	-586.3177490234375	1497.3486328125	399.8163146972655	233.552505493164	1577.492553710938	243.3002624511718	-1418.109252929688	1565.18603515625	303.0616149902341	
188	1.558333333333333	-655.8780517578125	1781.046875	442.4469909667967	-778.7568969726562	91.3520965576172	190.2882385253905	-588.592041015625	1328.920532226562	444.1397094726561	-553.76123046875	99.90700531005861	240.3314056396484	-433.8285827636719	542.4671630859375	262.8644409179686	-587.4833984375	1316.14697265625	207.3256530761717	-1050.687866210938	1426.030517578125	307.061096191406	-1325.170043945312	1512.171997070312	284.8094787597653	-596.5224609375	1592.070922851562	267.1481323242186	-465.2015686035157	1063.529907226562	396.8488769531249	-484.3057861328126	35.55534744262698	420.7885742187499	-763.4580688476562	36.77177429199222	426.5560913085936	120.6558074951172	1579.692749023438	276.7990112304686	-532.779052734375	1111.02294921875	201.4622497558593	-661.5830078125	1110.349609375	191.6982269287108	-759.8442993164062	1075.88232421875	372.4947509765623	-553.1062622070312	500.6537475585938	262.9107666015624	-666.3535766601562	503.7164611816406	285.6135253906249	-779.45263671875	547.1431274414062	278.2677307128905	-466.1854858398438	85.85057067871095	190.8655548095703	-690.1993408203125	97.46677398681642	228.9980163574218	-525.9751586914062	63.19169616699219	152.6587982177734	-732.1157836914062	72.03270721435548	150.3329315185546	-132.5725860595703	1441.233642578125	296.4851684570311	-132.1745910644532	1487.554931640625	239.760284423828	-1058.296508789062	1476.617797851562	258.0516052246091	-1308.128173828125	1557.582763671875	334.2283630371091	141.5535430908203	1502.843627929688	260.3099365234374	-523.2550659179688	1775.431518554688	429.8838806152342	-552.2002563476562	1733.46728515625	273.3544311523436	-688.29736328125	1735.666748046875	295.4003601074217	-740.7655639648438	1576.006713867188	290.4286804199216	-442.5670776367188	1589.423950195312	304.4460144042967	-586.3226928710938	1497.361206054688	399.7909851074217	233.5476531982422	1577.404174804688	243.2716979980468	-1418.124267578125	1565.054321289062	303.0431518554685	
189	1.566666666666667	-655.9198608398438	1781.033935546875	442.4308166503905	-778.75537109375	91.34983825683595	190.2855072021484	-588.6072387695312	1328.92578125	444.1277770996093	-553.7581787109375	99.9072952270508	240.3459777832031	-433.8317565917969	542.4774169921875	262.8730468749999	-587.4830932617188	1316.134033203125	207.3220977783201	-1050.665405273438	1425.944458007812	307.0250854492185	-1325.184692382812	1512.065185546875	284.7531433105466	-596.5408935546875	1592.06787109375	267.1170654296873	-465.1870727539063	1063.528564453125	396.8356933593749	-484.3129882812501	35.56237411499026	420.7862548828124	-763.4580688476562	36.77963638305667	426.548858642578	120.6514129638672	1579.630004882812	276.7706604003905	-532.7892456054688	1111.011352539062	201.4613494873046	-661.563720703125	1110.343994140625	191.6861267089842	-759.8395385742188	1075.875610351562	372.5003356933592	-553.1052856445312	500.6419372558594	262.8899536132811	-666.3433227539062	503.7124633789062	285.6144409179686	-779.443603515625	547.143798828125	278.2711791992186	-466.1890258789062	85.85385894775392	190.8472442626953	-690.1941528320312	97.46810150146486	228.9993591308593	-525.9868774414062	63.19710540771485	152.6541748046874	-732.1153564453125	72.02804565429689	150.3323364257812	-132.5940856933594	1441.193481445312	296.4819335937499	-132.1800994873047	1487.494384765625	239.7383880615233	-1058.278564453125	1476.53515625	258.0138549804685	-1308.13916015625	1557.451171875	334.1640014648435	141.5334167480468	1502.774047851562	260.2884521484374	-523.2949829101562	1775.453002929688	429.8399658203123	-552.2559814453125	1733.468994140625	273.300079345703	-688.334716796875	1735.64892578125	295.3812866210936	-740.7727661132812	1575.984252929688	290.3815307617185	-442.5761718750001	1589.416259765625	304.4124450683592	-586.3328247070312	1497.36669921875	399.7629089355467	233.546890258789	1577.309326171875	243.2296295166015	-1418.13134765625	1564.916625976562	302.9905090332028	
